<svg width="28" height="28" viewBox="0 0 28 28" fill="none" xmlns="http://www.w3.org/2000/svg">
<g clip-path="url(#clip0)" filter="url(#filter0_d)">
<path d="M23.8843 4.17858C23.7698 4.0145 23.5856 3.91308 23.3855 3.90453L10.9793 3.36977C10.6234 3.35419 10.3259 3.629 10.3107 3.9833C10.2956 4.33747 10.5699 4.63672 10.9242 4.65194L22.4905 5.15053L20.2163 12.2461H10.096L8.26757 2.29067C8.22737 2.07247 8.07757 1.89045 7.87097 1.80939L4.87638 0.632941C4.54634 0.503726 4.17391 0.665837 4.0443 0.995476C3.9149 1.32529 4.07697 1.69794 4.40683 1.82756L7.0695 2.87359L8.93015 13.0038C8.98624 13.3083 9.25165 13.5295 9.56141 13.5295H9.87006L9.16527 15.4872C9.10628 15.6512 9.13058 15.8333 9.23097 15.9757C9.33123 16.1183 9.49428 16.203 9.66834 16.203H10.1627C9.85637 16.5439 9.66834 16.9928 9.66834 17.4864C9.66834 18.548 10.5321 19.4116 11.5934 19.4116C12.6548 19.4116 13.5186 18.548 13.5186 17.4864C13.5186 16.9929 13.3305 16.5439 13.0243 16.203H17.2215C16.915 16.5439 16.727 16.9928 16.727 17.4864C16.727 18.548 17.5906 19.4116 18.6521 19.4116C19.7137 19.4116 20.5773 18.548 20.5773 17.4864C20.5773 16.9929 20.3893 16.5439 20.083 16.203H20.6842C20.9796 16.203 21.219 15.9636 21.219 15.6683C21.219 15.3729 20.9796 15.1335 20.6842 15.1335H10.4292L11.0067 13.5293H20.6842C20.9632 13.5293 21.2102 13.349 21.2952 13.0835L23.9689 4.74132C24.0303 4.55092 23.9988 4.34275 23.8843 4.17858ZM11.5935 18.3423C11.1216 18.3423 10.7379 17.9585 10.7379 17.4867C10.7379 17.0148 11.1216 16.631 11.5935 16.631C12.0654 16.631 12.4491 17.0148 12.4491 17.4867C12.4491 17.9585 12.0654 18.3423 11.5935 18.3423ZM18.6521 18.3423C18.1803 18.3423 17.7966 17.9585 17.7966 17.4867C17.7966 17.0148 18.1803 16.631 18.6521 16.631C19.124 16.631 19.5077 17.0148 19.5077 17.4867C19.5077 17.9585 19.124 18.3423 18.6521 18.3423Z" fill="#767272"/>
</g>
<defs>
<filter id="filter0_d" x="0" y="0" width="28" height="28" filterUnits="userSpaceOnUse" color-interpolation-filters="sRGB">
<feFlood flood-opacity="0" result="BackgroundImageFix"/>
<feColorMatrix in="SourceAlpha" type="matrix" values="0 0 0 0 0 0 0 0 0 0 0 0 0 0 0 0 0 0 127 0"/>
<feOffset dy="4"/>
<feGaussianBlur stdDeviation="2"/>
<feColorMatrix type="matrix" values="0 0 0 0 0 0 0 0 0 0 0 0 0 0 0 0 0 0 0.25 0"/>
<feBlend mode="normal" in2="BackgroundImageFix" result="effect1_dropShadow"/>
<feBlend mode="normal" in="SourceGraphic" in2="effect1_dropShadow" result="shape"/>
</filter>
<clipPath id="clip0">
<rect width="20" height="20" fill="white" transform="translate(4)"/>
</clipPath>
</defs>
</svg>
