<svg width="41" height="40" viewBox="0 0 41 40" fill="none" xmlns="http://www.w3.org/2000/svg">
<ellipse cx="20.7035" cy="20" rx="20.1561" ry="20" fill="#0E49B5"/>
<g clip-path="url(#clip0)">
<path d="M20.9902 33H19.409C18.1301 33 17.0895 31.9676 17.0895 30.6986V30.1678C16.5458 29.9954 16.0176 29.7778 15.5101 29.5172L15.131 29.8934C14.2128 30.8056 12.742 30.7789 11.8504 29.8931L10.7328 28.7842C9.83974 27.899 9.81405 26.44 10.7331 25.5291L11.1119 25.1532C10.8493 24.6496 10.6301 24.1255 10.4563 23.5859H9.92143C8.64258 23.5859 7.60205 22.5535 7.60205 21.2845V19.7155C7.60205 18.4465 8.64258 17.4141 9.92148 17.4141H10.4564C10.6301 16.8745 10.8494 16.3504 11.112 15.8468L10.7329 15.4707C9.81435 14.5603 9.83969 13.1012 10.7332 12.2156L11.8509 11.1066C12.7445 10.2187 14.2149 10.1965 15.1314 11.1069L15.5101 11.4827C16.0176 11.2222 16.5459 11.0046 17.0896 10.8322V10.3014C17.0896 9.03242 18.1301 8 19.409 8H20.9903C22.2692 8 23.3096 9.03242 23.3096 10.3014V10.8322C23.8533 11.0046 24.3816 11.2222 24.8891 11.4828L25.2682 11.1066C26.1864 10.1944 27.6572 10.2211 28.5487 11.1069L29.6663 12.2158C30.5594 13.101 30.5851 14.56 29.666 15.4709L29.2872 15.8468C29.5499 16.3504 29.7691 16.8745 29.9428 17.4141H30.4777C31.7566 17.4141 32.7972 18.4465 32.7972 19.7155V21.2845C32.7972 22.5535 31.7566 23.5859 30.4777 23.5859H29.9428C29.7691 24.1255 29.5499 24.6496 29.2872 25.1532L29.6663 25.5293C30.5849 26.4398 30.5595 27.8989 29.666 28.7845L28.5483 29.8935C27.6548 30.7813 26.1843 30.8035 25.2679 29.8932L24.8891 29.5173C24.3816 29.7779 23.8533 29.9955 23.3096 30.1679V30.6987C23.3096 31.9676 22.2692 33 20.9902 33ZM15.7569 27.979C16.4619 28.3927 17.2207 28.7053 18.0122 28.908C18.3381 28.9914 18.5659 29.2831 18.5659 29.6171V30.6986C18.5659 31.1599 18.9441 31.5352 19.409 31.5352H20.9903C21.4551 31.5352 21.8334 31.1599 21.8334 30.6986V29.6171C21.8334 29.2831 22.0611 28.9914 22.3871 28.908C23.1786 28.7053 23.9374 28.3927 24.6424 27.979C24.9325 27.8088 25.3018 27.8551 25.5401 28.0916L26.3121 28.8576C26.645 29.1883 27.1795 29.1806 27.5042 28.858L28.6226 27.7483C28.9465 27.4273 28.9573 26.8968 28.6229 26.5654L27.8505 25.7991C27.6122 25.5626 27.5656 25.1961 27.7371 24.9083C28.154 24.2088 28.469 23.4559 28.6732 22.6705C28.7574 22.3471 29.0514 22.1211 29.388 22.1211H30.4778C30.9427 22.1211 31.3209 21.7458 31.3209 21.2846V19.7155C31.3209 19.2542 30.9427 18.879 30.4778 18.879H29.388C29.0513 18.879 28.7574 18.653 28.6732 18.3296C28.469 17.5442 28.154 16.7913 27.7371 16.0917C27.5656 15.804 27.6122 15.4375 27.8505 15.201L28.6226 14.435C28.9563 14.1042 28.9476 13.5739 28.6229 13.2521L27.5046 12.1425C27.1804 11.8204 26.6458 11.811 26.3125 12.1422L25.5402 12.9085C25.3019 13.145 24.9325 13.1913 24.6425 13.0211C23.9374 12.6074 23.1786 12.2948 22.3872 12.0921C22.0612 12.0087 21.8335 11.717 21.8335 11.383V10.3014C21.8335 9.84014 21.4552 9.46484 20.9903 9.46484H19.4091C18.9442 9.46484 18.5659 9.84014 18.5659 10.3014V11.3829C18.5659 11.7169 18.3382 12.0086 18.0122 12.092C17.2207 12.2947 16.4619 12.6073 15.7569 13.021C15.4668 13.1912 15.0975 13.1449 14.8592 12.9084L14.0872 12.1424C13.7543 11.8117 13.2198 11.8194 12.8951 12.142L11.7768 13.2517C11.4529 13.5727 11.442 14.1031 11.7765 14.4346L12.5488 15.2009C12.7871 15.4374 12.8337 15.8039 12.6622 16.0917C12.2453 16.7912 11.9303 17.5441 11.7261 18.3295C11.6419 18.6529 11.348 18.8789 11.0114 18.8789H9.92148C9.4566 18.8789 9.07833 19.2542 9.07833 19.7155V21.2845C9.07833 21.7458 9.4566 22.1211 9.92148 22.1211H11.0113C11.348 22.1211 11.6419 22.3471 11.726 22.6705C11.9303 23.4559 12.2453 24.2088 12.6622 24.9083C12.8337 25.1961 12.787 25.5626 12.5488 25.799L11.7767 26.5651C11.443 26.8959 11.4517 27.4261 11.7764 27.7479L12.8947 28.8576C13.2188 29.1796 13.7534 29.1891 14.0868 28.8579L14.8591 28.0915C15.0347 27.9173 15.3999 27.7695 15.7569 27.979Z" fill="white"/>
<path d="M20.1997 25.9395C17.1769 25.9395 14.7178 23.4993 14.7178 20.5C14.7178 17.5007 17.1769 15.0605 20.1997 15.0605C23.2225 15.0605 25.6816 17.5007 25.6816 20.5C25.6816 23.4993 23.2225 25.9395 20.1997 25.9395ZM20.1997 16.5254C17.9909 16.5254 16.1941 18.3084 16.1941 20.5C16.1941 22.6916 17.991 24.4746 20.1997 24.4746C22.4084 24.4746 24.2053 22.6916 24.2053 20.5C24.2053 18.3084 22.4084 16.5254 20.1997 16.5254Z" fill="white"/>
</g>
<defs>
<clipPath id="clip0">
<rect width="25.1951" height="25" fill="white" transform="translate(7.60205 8)"/>
</clipPath>
</defs>
</svg>
